<?xml version="1.0" standalone="no"?>
<!DOCTYPE svg PUBLIC "-//W3C//DTD SVG 20010904//EN"
 "http://www.w3.org/TR/2001/REC-SVG-20010904/DTD/svg10.dtd">
<svg version="1.0" xmlns="http://www.w3.org/2000/svg"
 width="490.000000pt" height="509.000000pt" viewBox="0 0 490.000000 509.000000"
 preserveAspectRatio="xMidYMid meet">

<g transform="translate(0.000000,509.000000) scale(0.100000,-0.100000)"
fill="#fff" stroke="none">
<path d="M2109 4581 c-638 -88 -1197 -501 -1483 -1097 -47 -97 -116 -274 -116
-297 0 -8 -9 -51 -20 -96 -50 -198 -66 -485 -40 -682 13 -96 63 -322 87 -389
32 -90 137 -316 170 -365 18 -27 33 -53 33 -58 0 -4 38 -59 84 -120 132 -176
276 -314 471 -452 65 -46 223 -136 270 -154 28 -11 89 -35 137 -54 100 -41
166 -60 258 -78 36 -7 75 -19 87 -26 21 -14 23 -13 38 23 8 21 18 48 21 61 7
28 18 29 88 2 60 -22 72 -32 59 -51 -11 -18 -33 -81 -33 -96 0 -8 7 -12 16
-10 10 2 31 41 55 107 42 113 51 161 32 168 -7 3 -13 -2 -13 -10 0 -8 -9 -35
-20 -60 l-20 -46 -68 25 c-37 14 -69 27 -71 30 -2 2 6 29 18 60 25 67 25 64 2
64 -15 0 -25 -20 -51 -100 -18 -55 -35 -100 -39 -100 -3 0 -49 11 -101 25
-429 110 -779 330 -1041 655 -191 236 -339 566 -394 875 -22 125 -22 495 0
620 56 320 199 639 389 870 22 28 48 59 56 70 46 60 196 197 311 283 240 179
534 297 864 347 115 17 329 19 460 5 108 -12 355 -71 445 -107 108 -42 272
-123 332 -164 31 -22 60 -39 63 -39 12 0 199 -153 263 -214 268 -259 463 -617
541 -993 12 -56 21 -122 21 -147 0 -46 0 -46 35 -46 27 0 35 4 35 18 0 70 -69
370 -109 480 -93 248 -233 476 -411 665 -75 80 -250 237 -264 237 -3 0 -32 20
-63 44 -32 24 -83 57 -113 74 -90 49 -218 112 -227 112 -4 0 -42 14 -83 30
-186 76 -374 110 -645 116 -137 2 -212 -1 -316 -15z"/>
<path d="M1330 3160 c0 -18 7 -20 58 -20 32 0 63 -5 70 -12 17 -17 17 -889 0
-906 -7 -7 -38 -12 -70 -12 -55 0 -58 -1 -58 -25 l0 -25 205 0 205 0 0 25 c0
24 -3 25 -58 25 -32 0 -63 5 -70 12 -9 9 -12 75 -12 235 l0 223 215 0 215 0
-2 -232 -3 -233 -67 -3 c-65 -3 -68 -4 -68 -27 l0 -25 210 0 210 0 0 25 c0 23
-3 24 -67 27 -62 3 -68 5 -74 28 -11 41 -10 845 1 874 9 24 14 26 75 26 58 0
65 2 65 20 0 19 -7 20 -210 20 -202 0 -210 -1 -210 -20 0 -17 8 -19 68 -22
l67 -3 3 -207 2 -208 -215 0 -215 0 0 198 c0 141 3 201 12 210 7 7 38 12 70
12 51 0 58 2 58 20 0 19 -7 20 -205 20 -198 0 -205 -1 -205 -20z"/>
<path d="M2460 3160 c0 -18 7 -20 58 -20 32 0 63 -5 70 -12 17 -17 17 -889 0
-906 -7 -7 -38 -12 -70 -12 -55 0 -58 -1 -58 -25 l0 -25 395 0 394 0 5 33 c3
17 8 107 11 200 6 140 5 167 -7 167 -10 0 -18 -21 -27 -66 -28 -152 -68 -224
-144 -260 -47 -22 -65 -24 -193 -24 -96 0 -144 4 -152 12 -9 9 -12 74 -12 231
l0 219 79 -3 c59 -3 84 -9 99 -22 30 -27 58 -94 67 -154 6 -43 11 -53 26 -53
18 0 19 11 19 255 0 242 -1 255 -19 255 -15 0 -19 -10 -24 -52 -7 -52 -46
-147 -70 -167 -8 -6 -49 -12 -93 -13 l-79 -3 -3 190 c-1 105 0 200 3 213 5 22
8 22 158 22 176 -1 204 -9 261 -78 35 -43 58 -104 71 -189 4 -27 12 -43 21
-43 11 0 14 22 14 114 0 62 -3 141 -6 175 l-7 61 -393 0 c-387 0 -394 0 -394
-20z"/>
<path d="M4120 2813 c1 -22 21 -32 80 -39 110 -12 111 -13 36 -74 -41 -34 -65
-59 -61 -68 3 -7 5 -16 5 -18 0 -3 37 27 83 66 l82 71 53 -6 c43 -5 52 -4 52
9 0 18 -9 21 -165 41 -66 9 -130 18 -142 21 -13 2 -23 1 -23 -3z"/>
<path d="M4253 2561 c-57 -35 -70 -96 -32 -145 23 -30 22 -31 -54 -41 -31 -4
-47 -11 -44 -18 3 -7 8 -12 13 -11 5 1 63 7 129 13 66 7 127 13 135 14 8 1 15
9 15 17 0 8 -6 14 -14 12 -9 -2 -11 2 -6 15 5 10 10 36 13 59 3 32 -1 47 -20
68 -31 37 -91 45 -135 17z m114 -43 c29 -27 29 -57 2 -92 -42 -54 -139 -24
-139 44 0 63 88 94 137 48z"/>
<path d="M3499 2302 c-17 -15 -22 -29 -22 -64 0 -55 6 -66 48 -84 47 -19 88
-3 110 43 14 29 15 40 4 64 -23 58 -93 78 -140 41z"/>
<path d="M4241 2251 c-25 -23 -31 -37 -31 -69 0 -33 6 -45 35 -71 75 -65 175
-24 175 71 0 35 -6 50 -25 68 -18 17 -25 19 -25 9 0 -8 5 -20 11 -26 6 -6 11
-28 12 -48 1 -40 -20 -65 -56 -65 -19 0 -19 5 -13 80 l6 80 -29 0 c-18 0 -40
-11 -60 -29z m57 -61 c-5 -70 -11 -79 -38 -55 -36 33 -16 115 28 115 11 0 14
-12 10 -60z"/>
<path d="M4100 2026 c0 -10 39 -21 135 -40 159 -30 155 -30 155 -12 0 21 -4
22 -110 39 -174 28 -180 28 -180 13z"/>
<path d="M4184 1902 c-19 -12 -34 -49 -34 -82 0 -35 15 -70 30 -70 14 0 13 33
-1 47 -18 18 -2 62 27 75 34 16 48 0 34 -36 -32 -84 14 -151 80 -116 26 14 44
73 31 99 -15 26 -14 29 7 27 9 0 17 5 17 13 0 27 -161 63 -191 43z m132 -68
c21 -31 9 -77 -21 -82 -30 -6 -44 22 -33 68 12 46 30 51 54 14z"/>
<path d="M4095 1679 c-6 -17 -13 -20 -36 -15 -22 4 -29 2 -29 -10 0 -8 7 -17
16 -21 11 -4 14 -13 10 -29 -7 -27 10 -33 28 -9 10 13 17 12 56 -9 42 -22 72
-30 112 -27 9 1 21 15 27 31 12 35 5 38 -25 9 l-22 -20 -62 31 c-43 22 -60 35
-56 46 3 8 9 21 12 29 4 9 0 15 -9 15 -9 0 -19 -9 -22 -21z"/>
<path d="M4045 1436 c-38 -63 -44 -81 -25 -81 12 0 89 127 83 138 -9 15 -20 5
-58 -57z"/>
<path d="M3888 1333 c-14 -14 -22 -14 -42 -5 -30 14 -43 0 -20 -22 13 -14 14
-19 3 -32 -9 -12 -10 -17 0 -27 10 -9 14 -8 22 6 10 16 15 14 62 -26 67 -57
90 -64 116 -38 22 22 27 41 12 41 -6 0 -13 -4 -16 -10 -13 -21 -48 -8 -92 33
l-46 44 21 21 c11 11 18 23 15 26 -10 10 -18 7 -35 -11z"/>
<path d="M3683 1246 c-18 -17 -46 -42 -63 -56 l-32 -25 44 -47 c24 -25 67 -73
96 -107 29 -34 56 -61 60 -61 11 0 132 111 132 121 0 21 -27 6 -72 -38 l-48
-47 -41 40 -40 40 51 43 c47 40 61 61 41 61 -6 0 -31 -19 -57 -41 l-48 -41
-34 37 -35 38 51 48 c29 27 52 53 52 59 0 18 -24 8 -57 -24z"/>
<path d="M3415 958 c-30 -18 -54 -51 -55 -75 0 -32 17 -28 35 7 23 44 59 59
85 35 24 -21 18 -33 -26 -51 -49 -21 -70 -56 -54 -93 7 -17 22 -32 37 -36 35
-8 96 24 103 55 5 22 7 23 16 8 6 -11 14 -14 23 -9 10 7 6 23 -24 75 -51 91
-88 114 -140 84z m105 -123 c0 -62 -77 -88 -89 -29 -4 21 44 64 72 64 13 0 17
-8 17 -35z"/>
<path d="M3190 863 c-29 -11 -60 -47 -60 -70 0 -32 16 -29 34 6 17 32 60 48
82 30 25 -21 15 -37 -41 -63 -51 -23 -55 -27 -55 -59 0 -67 69 -90 119 -39 22
21 32 25 44 18 29 -19 30 3 2 79 -34 94 -67 119 -125 98z m90 -126 c0 -53 -60
-88 -90 -52 -18 22 -2 54 33 64 50 14 57 13 57 -12z"/>
<path d="M2444 802 c-25 -4 -61 -39 -51 -49 4 -3 18 -1 32 5 51 23 95 9 95
-30 0 -16 -7 -17 -59 -12 -51 6 -61 4 -80 -15 -32 -32 -27 -67 12 -91 38 -24
53 -25 88 -6 23 12 26 12 25 -3 0 -9 6 -16 14 -16 10 0 18 19 27 65 7 36 12
72 13 81 1 41 -64 80 -116 71z m63 -129 c9 -22 -33 -55 -65 -51 -29 4 -48 28
-39 52 9 23 95 23 104 -1z"/>
<path d="M2922 782 c-14 -14 -22 -16 -35 -8 -9 6 -18 8 -21 5 -3 -3 2 -49 11
-102 11 -65 20 -97 29 -97 11 0 12 17 7 80 -5 72 -4 82 13 95 24 18 68 19 82
3 5 -7 13 -33 16 -58 13 -87 18 -100 33 -100 13 0 15 10 9 63 -4 34 -15 78
-25 97 -15 30 -23 35 -59 38 -30 2 -46 -2 -60 -16z"/>
<path d="M2650 758 c-11 -12 -20 -27 -20 -34 0 -21 41 -53 76 -60 38 -7 59
-27 50 -49 -7 -20 -70 -20 -86 0 -16 19 -40 19 -40 1 0 -23 41 -46 80 -46 48
0 80 24 80 60 0 33 -7 39 -70 60 -33 11 -46 21 -48 38 -3 19 1 22 29 22 18 0
40 -7 50 -16 31 -28 46 -10 17 19 -35 35 -88 37 -118 5z"/>
</g>
</svg>
